<svg width="66" height="64" viewBox="0 0 66 64" fill="none" xmlns="http://www.w3.org/2000/svg">
<path d="M32.307 7.02L33 7C35.8887 6.99986 38.6686 8.06837 40.7727 9.98757C42.8769 11.9068 44.1467 14.5321 44.3231 17.328L44.3438 18V20H47.4375C49.0785 20 50.6523 20.6321 51.8127 21.7574C52.9731 22.8826 53.625 24.4087 53.625 26V50C53.625 51.5913 52.9731 53.1174 51.8127 54.2426C50.6523 55.3679 49.0785 56 47.4375 56H18.5625C16.9215 56 15.3477 55.3679 14.1873 54.2426C13.0269 53.1174 12.375 51.5913 12.375 50V26C12.375 24.4087 13.0269 22.8826 14.1873 21.7574C15.3477 20.6321 16.9215 20 18.5625 20H21.6562V18C21.6561 15.1989 22.758 12.5032 24.7372 10.4628C26.7164 8.42245 29.4237 7.19112 32.307 7.02L33 7L32.307 7.02ZM33 34C31.906 34 30.8568 34.4214 30.0832 35.1716C29.3096 35.9217 28.875 36.9391 28.875 38C28.875 39.0609 29.3096 40.0783 30.0832 40.8284C30.8568 41.5786 31.906 42 33 42C34.094 42 35.1432 41.5786 35.9168 40.8284C36.6904 40.0783 37.125 39.0609 37.125 38C37.125 36.9391 36.6904 35.9217 35.9168 35.1716C35.1432 34.4214 34.094 34 33 34ZM33.528 13.024L33 13C31.7235 12.9994 30.4921 13.458 29.5442 14.2871C28.5963 15.1161 27.9992 16.2567 27.8685 17.488L27.8438 18V20H38.1562V18C38.1568 16.7622 37.6839 15.5681 36.8289 14.6489C35.974 13.7297 34.7978 13.1508 33.528 13.024L33 13L33.528 13.024Z" fill="white"/>
</svg>
