<svg width="250" height="93" viewBox="0 0 250 93" fill="none" xmlns="http://www.w3.org/2000/svg">
<rect width="250" height="93" rx="12" fill="#64EA61"/>
<path d="M60.27 62.45C57.9 62.45 55.71 62.06 53.7 61.28C51.72 60.47 49.995 59.345 48.525 57.905C47.055 56.435 45.915 54.71 45.105 52.73C44.325 50.72 43.935 48.515 43.935 46.115C43.935 43.775 44.355 41.615 45.195 39.635C46.035 37.655 47.19 35.945 48.66 34.505C50.16 33.035 51.915 31.895 53.925 31.085C55.965 30.275 58.185 29.87 60.585 29.87C62.085 29.87 63.555 30.065 64.995 30.455C66.435 30.845 67.77 31.43 69 32.21C70.26 32.96 71.34 33.86 72.24 34.91L67.56 40.265C66.93 39.605 66.255 39.035 65.535 38.555C64.845 38.045 64.08 37.655 63.24 37.385C62.4 37.115 61.5 36.98 60.54 36.98C59.34 36.98 58.2 37.205 57.12 37.655C56.07 38.075 55.14 38.69 54.33 39.5C53.55 40.28 52.935 41.24 52.485 42.38C52.035 43.52 51.81 44.795 51.81 46.205C51.81 47.585 52.035 48.845 52.485 49.985C52.935 51.095 53.565 52.055 54.375 52.865C55.185 53.675 56.16 54.29 57.3 54.71C58.47 55.13 59.76 55.34 61.17 55.34C62.13 55.34 63.045 55.205 63.915 54.935C64.785 54.665 65.58 54.305 66.3 53.855C67.05 53.375 67.71 52.835 68.28 52.235L71.97 58.085C71.22 58.925 70.215 59.675 68.955 60.335C67.725 60.995 66.345 61.52 64.815 61.91C63.315 62.27 61.8 62.45 60.27 62.45ZM87.6901 62.45C85.2001 62.45 82.9801 61.91 81.0301 60.83C79.1101 59.75 77.5801 58.28 76.4401 56.42C75.3301 54.56 74.7751 52.43 74.7751 50.03C74.7751 47.63 75.3301 45.5 76.4401 43.64C77.5801 41.78 79.1101 40.31 81.0301 39.23C82.9801 38.15 85.2001 37.61 87.6901 37.61C90.1801 37.61 92.3851 38.15 94.3051 39.23C96.2551 40.31 97.7851 41.78 98.8951 43.64C100.005 45.5 100.56 47.63 100.56 50.03C100.56 52.43 100.005 54.56 98.8951 56.42C97.7851 58.28 96.2551 59.75 94.3051 60.83C92.3851 61.91 90.1801 62.45 87.6901 62.45ZM87.6901 56.24C88.7701 56.24 89.7301 55.97 90.5701 55.43C91.4101 54.89 92.0701 54.155 92.5501 53.225C93.0301 52.295 93.2551 51.23 93.2251 50.03C93.2551 48.83 93.0301 47.765 92.5501 46.835C92.0701 45.875 91.4101 45.125 90.5701 44.585C89.7301 44.045 88.7701 43.775 87.6901 43.775C86.6101 43.775 85.6351 44.045 84.7651 44.585C83.9251 45.125 83.2651 45.875 82.7851 46.835C82.3051 47.765 82.0801 48.83 82.1101 50.03C82.0801 51.23 82.3051 52.295 82.7851 53.225C83.2651 54.155 83.9251 54.89 84.7651 55.43C85.6351 55.97 86.6101 56.24 87.6901 56.24ZM105.268 71.9V38.105H112.108L112.378 43.46L111.028 43.055C111.238 42.065 111.748 41.165 112.558 40.355C113.368 39.545 114.388 38.9 115.618 38.42C116.878 37.91 118.198 37.655 119.578 37.655C121.618 37.655 123.433 38.195 125.023 39.275C126.613 40.325 127.858 41.78 128.758 43.64C129.688 45.47 130.153 47.6 130.153 50.03C130.153 52.43 129.688 54.56 128.758 56.42C127.858 58.28 126.598 59.75 124.978 60.83C123.388 61.88 121.558 62.405 119.488 62.405C118.138 62.405 116.848 62.15 115.618 61.64C114.388 61.13 113.353 60.44 112.513 59.57C111.673 58.7 111.118 57.755 110.848 56.735L112.513 56.105V71.9H105.268ZM117.733 56.33C118.813 56.33 119.758 56.075 120.568 55.565C121.378 55.025 122.008 54.29 122.458 53.36C122.908 52.43 123.133 51.32 123.133 50.03C123.133 48.77 122.908 47.675 122.458 46.745C122.008 45.785 121.378 45.05 120.568 44.54C119.788 44 118.843 43.73 117.733 43.73C116.623 43.73 115.663 43.985 114.853 44.495C114.043 45.005 113.413 45.74 112.963 46.7C112.513 47.66 112.288 48.77 112.288 50.03C112.288 51.32 112.513 52.43 112.963 53.36C113.413 54.29 114.043 55.025 114.853 55.565C115.663 56.075 116.623 56.33 117.733 56.33ZM135.336 62V38.105H142.536V62H135.336ZM138.936 33.38C137.586 33.38 136.521 33.065 135.741 32.435C134.991 31.775 134.616 30.845 134.616 29.645C134.616 28.565 135.006 27.68 135.786 26.99C136.566 26.3 137.616 25.955 138.936 25.955C140.286 25.955 141.336 26.285 142.086 26.945C142.836 27.575 143.211 28.475 143.211 29.645C143.211 30.755 142.821 31.655 142.041 32.345C141.291 33.035 140.256 33.38 138.936 33.38ZM160.686 62.45C158.046 62.45 155.751 61.925 153.801 60.875C151.851 59.795 150.336 58.34 149.256 56.51C148.176 54.65 147.636 52.535 147.636 50.165C147.636 48.335 147.936 46.655 148.536 45.125C149.136 43.595 149.976 42.275 151.056 41.165C152.136 40.025 153.411 39.155 154.881 38.555C156.381 37.925 158.016 37.61 159.786 37.61C161.466 37.61 162.996 37.91 164.376 38.51C165.786 39.11 167.001 39.95 168.021 41.03C169.041 42.11 169.821 43.385 170.361 44.855C170.901 46.325 171.141 47.93 171.081 49.67L171.036 51.605H152.001L150.966 47.555H165.186L164.421 48.41V47.51C164.361 46.76 164.121 46.1 163.701 45.53C163.311 44.93 162.786 44.465 162.126 44.135C161.466 43.805 160.716 43.64 159.876 43.64C158.706 43.64 157.701 43.88 156.861 44.36C156.051 44.81 155.436 45.485 155.016 46.385C154.596 47.255 154.386 48.335 154.386 49.625C154.386 50.945 154.656 52.1 155.196 53.09C155.766 54.05 156.576 54.8 157.626 55.34C158.706 55.88 159.981 56.15 161.451 56.15C162.471 56.15 163.371 56 164.151 55.7C164.961 55.4 165.831 54.89 166.761 54.17L170.136 58.94C169.206 59.75 168.216 60.41 167.166 60.92C166.116 61.43 165.036 61.805 163.926 62.045C162.846 62.315 161.766 62.45 160.686 62.45ZM184.714 62.495C182.644 62.495 180.799 61.97 179.179 60.92C177.589 59.84 176.329 58.37 175.399 56.51C174.469 54.62 174.004 52.475 174.004 50.075C174.004 47.675 174.469 45.545 175.399 43.685C176.329 41.795 177.604 40.31 179.224 39.23C180.844 38.15 182.704 37.61 184.804 37.61C185.884 37.61 186.919 37.775 187.909 38.105C188.899 38.435 189.799 38.885 190.609 39.455C191.419 40.025 192.079 40.685 192.589 41.435C193.099 42.155 193.399 42.905 193.489 43.685L191.779 44.09V28.7H199.024V62H192.319L191.914 56.555L193.354 56.78C193.264 57.53 192.964 58.25 192.454 58.94C191.974 59.63 191.344 60.245 190.564 60.785C189.784 61.295 188.884 61.7 187.864 62C186.874 62.33 185.824 62.495 184.714 62.495ZM186.559 56.51C187.669 56.51 188.629 56.24 189.439 55.7C190.249 55.16 190.864 54.41 191.284 53.45C191.734 52.49 191.959 51.365 191.959 50.075C191.959 48.755 191.734 47.615 191.284 46.655C190.864 45.695 190.249 44.945 189.439 44.405C188.629 43.865 187.669 43.595 186.559 43.595C185.449 43.595 184.489 43.865 183.679 44.405C182.899 44.945 182.284 45.695 181.834 46.655C181.384 47.615 181.159 48.755 181.159 50.075C181.159 51.365 181.384 52.49 181.834 53.45C182.284 54.41 182.899 55.16 183.679 55.7C184.489 56.24 185.449 56.51 186.559 56.51ZM206.597 50.525C206.357 48.695 206.117 46.805 205.877 44.855C205.637 42.905 205.442 40.97 205.292 39.05C205.142 37.13 205.067 35.285 205.067 33.515V30.005H212.672V33.515C212.672 35.315 212.597 37.19 212.447 39.14C212.297 41.09 212.102 43.04 211.862 44.99C211.622 46.91 211.367 48.755 211.097 50.525H206.597ZM208.847 62.495C207.617 62.495 206.657 62.15 205.967 61.46C205.277 60.77 204.932 59.78 204.932 58.49C204.932 57.29 205.292 56.315 206.012 55.565C206.732 54.815 207.677 54.44 208.847 54.44C210.077 54.44 211.022 54.8 211.682 55.52C212.372 56.21 212.717 57.2 212.717 58.49C212.717 59.66 212.357 60.62 211.637 61.37C210.917 62.12 209.987 62.495 208.847 62.495Z" fill="white"/>
</svg>
