<svg width="39" height="39" viewBox="0 0 39 39" fill="none" xmlns="http://www.w3.org/2000/svg">
<path d="M22.75 35.75H6.5C6.06917 35.765 5.63987 35.6912 5.23879 35.5331C4.83771 35.3751 4.47343 35.1362 4.1686 34.8314C3.86377 34.5266 3.62492 34.1623 3.46689 33.7612C3.30886 33.3601 3.23503 32.9308 3.25 32.5V16.25C3.23503 15.8192 3.30886 15.3899 3.46689 14.9888C3.62492 14.5877 3.86377 14.2234 4.1686 13.9186C4.47343 13.6138 4.83771 13.3749 5.23879 13.2169C5.63987 13.0589 6.06917 12.985 6.5 13H13V6.5C12.985 6.06917 13.0589 5.63987 13.2169 5.23879C13.3749 4.83771 13.6138 4.47343 13.9186 4.1686C14.2234 3.86377 14.5877 3.62492 14.9888 3.46689C15.3899 3.30886 15.8192 3.23503 16.25 3.25H32.5C32.9308 3.23503 33.3601 3.30886 33.7612 3.46689C34.1623 3.62492 34.5266 3.86377 34.8314 4.1686C35.1362 4.47343 35.3751 4.83771 35.5331 5.23879C35.6912 5.63987 35.765 6.06917 35.75 6.5V22.75C35.7647 23.1808 35.6907 23.61 35.5326 24.0109C35.3745 24.4119 35.1357 24.7761 34.8309 25.0809C34.5261 25.3857 34.1619 25.6245 33.7609 25.7826C33.36 25.9407 32.9308 26.0147 32.5 26H26V32.5C26.0147 32.9308 25.9407 33.36 25.7826 33.7609C25.6245 34.1619 25.3857 34.5261 25.0809 34.8309C24.7761 35.1357 24.4119 35.3745 24.0109 35.5326C23.61 35.6907 23.1808 35.7647 22.75 35.75ZM6.5 16.25V32.5H22.75V26H16.25C15.8192 26.0147 15.39 25.9407 14.9891 25.7826C14.5881 25.6245 14.2239 25.3857 13.9191 25.0809C13.6144 24.7761 13.3755 24.4119 13.2174 24.0109C13.0593 23.61 12.9853 23.1808 13 22.75V16.25H6.5ZM16.25 6.5V22.75H32.5V6.5H16.25Z" fill="#64EA61"/>
</svg>
