<svg width="40" height="40" viewBox="0 0 40 40" fill="none" xmlns="http://www.w3.org/2000/svg">
<path d="M25 24V22C25 20.9391 25.4214 19.9217 26.1716 19.1715C26.9217 18.4214 27.9391 18 29 18C30.0609 18 31.0783 18.4214 31.8284 19.1715C32.5786 19.9217 33 20.9391 33 22V24H34C34.5304 24 35.0391 24.2107 35.4142 24.5858C35.7893 24.9608 36 25.4695 36 26V34C36 34.5304 35.7893 35.0391 35.4142 35.4142C35.0391 35.7893 34.5304 36 34 36H24C23.4696 36 22.9609 35.7893 22.5858 35.4142C22.2107 35.0391 22 34.5304 22 34V26C22 25.4695 22.2107 24.9608 22.5858 24.5858C22.9609 24.2107 23.4696 24 24 24H25ZM27 22V24H31V22C31 21.4695 30.7893 20.9608 30.4142 20.5858C30.0391 20.2107 29.5304 20 29 20C28.4696 20 27.9609 20.2107 27.5858 20.5858C27.2107 20.9608 27 21.4695 27 22ZM30.5 30C30.5 29.6021 30.342 29.2206 30.0607 28.9393C29.7794 28.658 29.3978 28.5 29 28.5C28.6022 28.5 28.2206 28.658 27.9393 28.9393C27.658 29.2206 27.5 29.6021 27.5 30C27.5 30.3978 27.658 30.7793 27.9393 31.0606C28.2206 31.3419 28.6022 31.5 29 31.5C29.3978 31.5 29.7794 31.3419 30.0607 31.0606C30.342 30.7793 30.5 30.3978 30.5 30ZM19.446 4.16797C19.6101 4.05876 19.8029 4.00049 20 4.00049C20.1971 4.00049 20.3899 4.05876 20.554 4.16797C24.3297 6.71336 28.6338 8.36892 33.142 9.00997C33.3802 9.04414 33.5981 9.16306 33.7557 9.34491C33.9133 9.52676 34 9.75933 34 9.99997V18.682C33.2874 17.6078 32.2479 16.7916 31.0353 16.3543C29.8226 15.9171 28.5014 15.882 27.2673 16.2542C26.0332 16.6265 24.9517 17.3863 24.1831 18.4212C23.4146 19.456 22.9997 20.7109 23 22V22.126C22.1412 22.3477 21.3805 22.8486 20.8374 23.5499C20.2944 24.2511 19.9998 25.113 20 26V34C20 34.684 20.172 35.326 20.474 35.89L20.36 35.934C20.1283 36.0234 19.8717 36.0234 19.64 35.934C10.616 32.46 6 26.78 6 19V9.99997C6.00004 9.75904 6.08706 9.52621 6.24507 9.34432C6.40307 9.16243 6.62144 9.0437 6.86 9.00997C11.3675 8.36863 15.6709 6.71308 19.446 4.16797V4.16797Z" fill="#153B44"/>
</svg>
